<svg version="1.1" id="Layer_1" xmlns="http://www.w3.org/2000/svg" xmlns:xlink="http://www.w3.org/1999/xlink" x="0px" y="0px"
	 width="100%" viewBox="0 0 124 129" enable-background="new 0 0 124 129" xml:space="preserve">
<path fill="#020202" opacity="1.000000" stroke="none" 
	d="
M125.000000,50.000000 
	C125.000000,58.687565 125.000000,67.375130 124.702789,76.751419 
	C123.592117,79.955132 122.778671,82.470116 121.583649,84.961334 
	C120.273666,84.719498 119.306641,84.600380 118.427078,84.257133 
	C117.433815,83.869507 116.519180,83.280411 115.570343,82.778938 
	C115.042946,83.868736 114.353043,84.914154 114.039505,86.062355 
	C113.787941,86.983597 113.992821,88.029488 113.602058,89.003418 
	C112.093048,90.253098 110.358643,91.352707 109.964867,92.813660 
	C107.910378,100.435936 102.943291,102.299263 96.826523,97.451660 
	C94.414078,95.539780 92.057915,93.556877 89.676132,91.606316 
	C89.308128,92.036835 88.940125,92.467361 88.572121,92.897881 
	C90.263725,94.722221 91.970634,96.532654 93.642822,98.374619 
	C95.489220,100.408478 97.303772,102.471245 99.113052,104.499954 
	C97.819763,106.083488 96.919426,107.185883 95.711647,108.287094 
	C94.561211,108.750725 93.718216,109.215538 92.476929,109.747597 
	C90.390648,110.306625 88.702682,110.798401 86.699249,111.120399 
	C85.983795,111.100349 85.583794,111.250084 85.183792,111.399811 
	C85.759422,111.670486 86.335052,111.941170 86.703461,112.462830 
	C84.332169,114.162170 82.168106,115.610535 79.740555,117.028549 
	C79.314224,117.067085 79.151382,117.135994 78.563049,117.140167 
	C73.091217,117.715813 68.044884,118.356201 62.735630,119.023239 
	C62.308727,119.114273 62.144741,119.178650 61.623470,119.075554 
	C57.852909,118.722694 54.439636,118.537300 50.752701,118.303558 
	C50.300228,118.206757 50.121410,118.158295 49.795963,117.768234 
	C47.330208,116.355339 44.808998,115.575775 42.740440,114.142792 
	C39.808285,112.111572 38.088165,112.517975 36.763924,116.441147 
	C36.276375,118.181030 36.086018,119.386917 35.557137,120.440575 
	C31.672499,117.579094 28.126389,114.869850 24.885143,112.032692 
	C25.467699,111.325340 25.745390,110.745911 26.329258,110.093941 
	C27.104559,110.316200 27.573683,110.610992 28.065338,111.263626 
	C30.054415,113.178978 32.020958,114.736496 33.987503,116.294014 
	C34.338589,115.934837 34.689678,115.575653 35.040764,115.216469 
	C33.794304,113.493484 32.547844,111.770508 31.371464,109.666107 
	C30.652025,108.151291 29.862501,107.017883 29.023264,105.813110 
	C31.441719,102.321098 33.815586,98.893463 36.189457,95.465836 
	C35.751011,95.136993 35.312565,94.808151 34.874119,94.479317 
	C31.784340,97.403618 28.694561,100.327927 25.601040,103.255768 
	C4.628559,80.100044 4.108959,46.180298 22.771257,28.606558 
	C26.374891,31.369968 29.997311,34.147785 33.619728,36.925602 
	C33.985283,36.592628 34.350834,36.259651 34.716389,35.926678 
	C31.802595,32.600811 28.888803,29.274950 26.017254,25.997305 
	C46.578922,3.111574 85.731239,7.506183 102.138184,26.708109 
	C99.127815,30.657146 96.093872,34.637108 92.395851,39.488224 
	C94.097404,39.038273 94.826477,39.059685 95.218338,38.706726 
	C97.575233,36.583862 99.948792,34.464867 102.136932,32.172890 
	C105.024147,29.148661 107.383583,29.631344 108.873718,33.265347 
	C109.984947,35.975346 110.451515,38.949696 111.212997,41.835964 
	C109.974792,42.012753 109.186096,42.125359 108.945007,42.159782 
	C111.981705,45.138741 114.976555,48.076653 117.953987,51.405426 
	C118.263496,56.185795 118.590431,60.575294 118.630478,64.993073 
	C117.849991,66.397728 116.959236,67.774498 116.960571,69.150414 
	C116.962349,70.983963 117.657959,72.816841 118.230339,75.455994 
	C119.725677,73.051483 120.647079,72.092651 120.949295,70.967499 
	C121.467819,69.037117 121.599579,67.002853 121.929245,64.663536 
	C121.308266,59.876110 120.651756,55.437347 119.959518,50.596710 
	C118.561272,46.264915 117.198753,42.334991 115.870514,38.005341 
	C115.885155,37.338867 115.865517,37.072124 115.893021,36.875786 
	C115.940147,36.946186 115.806564,36.841949 116.046448,36.900616 
	C116.286324,36.959282 116.771004,37.054188 117.109947,37.127167 
	C117.906349,37.151695 118.363808,37.103252 119.118561,37.278412 
	C121.277237,41.668007 123.138618,45.834003 125.000000,50.000000 
M67.312134,65.568634 
	C67.804565,66.829758 68.729828,68.102333 68.696854,69.349564 
	C68.633591,71.742180 68.026489,74.120422 67.610077,76.722977 
	C70.303078,76.722977 72.420448,76.722977 75.339706,76.722977 
	C74.445831,71.138107 79.984207,65.799713 75.007034,60.072914 
	C76.403275,58.421974 77.890556,56.663399 80.150337,53.991402 
	C74.918571,54.112366 70.923538,52.696877 68.885406,57.595692 
	C66.910255,62.343140 63.106575,62.011475 58.931740,60.885113 
	C59.303886,58.538620 59.632866,56.464336 59.982815,54.257805 
	C57.293625,54.257805 54.881859,54.257805 52.357956,54.257805 
	C51.062988,61.806343 49.812637,69.094833 48.514812,76.660027 
	C51.341316,76.660027 53.593052,76.660027 55.909554,76.660027 
	C56.742451,72.818039 57.534290,69.165428 58.316162,65.558800 
	C61.380329,65.558800 63.873611,65.558800 67.312134,65.568634 
M111.532326,86.637924 
	C111.481071,86.840950 111.429825,87.043983 111.378578,87.247017 
	C111.504250,87.117531 111.629921,86.988052 111.532326,86.637924 
z"/>
<path fill="#F8F8F8" opacity="1.000000" stroke="none" 
	d="
M87.014709,111.290184 
	C88.702682,110.798401 90.390648,110.306625 92.653107,110.043358 
	C94.158096,109.610672 95.088593,108.949463 96.019089,108.288269 
	C96.919426,107.185883 97.819763,106.083488 99.113052,104.499954 
	C97.303772,102.471245 95.489220,100.408478 93.642822,98.374619 
	C91.970634,96.532654 90.263725,94.722221 88.572121,92.897881 
	C88.940125,92.467361 89.308128,92.036835 89.676132,91.606316 
	C92.057915,93.556877 94.414078,95.539780 96.826523,97.451660 
	C102.943291,102.299263 107.910378,100.435936 109.964867,92.813660 
	C110.358643,91.352707 112.093048,90.253098 113.664154,89.415741 
	C112.571991,94.530411 111.024666,99.216133 109.477333,103.901848 
	C111.579704,102.970154 113.520073,101.538841 114.594063,99.622093 
	C117.261719,94.861092 119.534103,89.878632 121.965225,84.985107 
	C122.778671,82.470116 123.592117,79.955132 124.702789,77.220078 
	C125.000000,94.631783 125.000000,112.263573 125.000000,129.947678 
	C83.783218,129.947678 42.566349,129.947678 1.000000,129.947678 
	C1.000000,115.314285 1.000000,100.625801 1.370228,85.458015 
	C3.524013,86.302696 5.307570,87.626678 7.350621,89.214233 
	C9.300316,97.683609 16.071367,106.873230 20.847940,106.574547 
	C9.998865,93.514717 5.293738,78.517006 5.324029,61.921600 
	C6.557899,48.662399 12.005222,37.128376 17.911648,25.574533 
	C11.822400,29.462023 9.154123,35.842743 5.968093,42.068886 
	C4.051968,41.672188 2.525984,41.336094 1.000000,41.000000 
	C1.000000,27.694103 1.000000,14.388207 1.000000,1.041156 
	C42.220806,1.041156 83.441666,1.041156 125.000000,1.041156 
	C125.000000,17.019314 125.000000,33.041000 125.000000,49.531342 
	C123.138618,45.834003 121.277237,41.668007 118.989761,36.994606 
	C117.416252,34.141899 116.593109,31.543018 115.019646,29.530876 
	C113.742058,27.897095 112.534431,23.195395 108.394325,28.711605 
	C110.975624,30.406092 113.418053,31.876534 115.674316,33.591835 
	C116.184563,33.979748 116.047501,35.219124 116.039734,36.225056 
	C115.871071,36.383556 115.806564,36.841949 115.806564,36.841949 
	C115.806564,36.841949 115.940147,36.946186 115.614983,36.980423 
	C115.471954,37.478130 115.654091,37.941601 115.836227,38.405067 
	C117.198753,42.334991 118.561272,46.264915 119.622803,50.629143 
	C118.871689,51.047153 118.421547,51.030861 117.971413,51.014565 
	C114.976555,48.076653 111.981705,45.138741 108.945007,42.159782 
	C109.186096,42.125359 109.974792,42.012753 111.212997,41.835964 
	C110.451515,38.949696 109.984947,35.975346 108.873718,33.265347 
	C107.383583,29.631344 105.024147,29.148661 102.136932,32.172890 
	C99.948792,34.464867 97.575233,36.583862 95.218338,38.706726 
	C94.826477,39.059685 94.097404,39.038273 92.395851,39.488224 
	C96.093872,34.637108 99.127815,30.657146 102.138184,26.708109 
	C85.731239,7.506183 46.578922,3.111574 26.017254,25.997305 
	C28.888803,29.274950 31.802595,32.600811 34.716389,35.926678 
	C34.350834,36.259651 33.985283,36.592628 33.619728,36.925602 
	C29.997311,34.147785 26.374891,31.369968 22.771257,28.606558 
	C4.108959,46.180298 4.628559,80.100044 25.601040,103.255768 
	C28.694561,100.327927 31.784340,97.403618 34.874119,94.479317 
	C35.312565,94.808151 35.751011,95.136993 36.189457,95.465836 
	C33.815586,98.893463 31.441719,102.321098 29.023264,105.813110 
	C29.862501,107.017883 30.652025,108.151291 31.013489,109.688187 
	C29.737890,110.363045 28.890350,110.634415 28.042809,110.905792 
	C27.573683,110.610992 27.104559,110.316200 26.039309,110.030884 
	C24.826828,110.576881 24.210474,111.113403 23.594120,111.649918 
	C23.922838,111.820152 24.251554,111.990387 24.580276,112.160614 
	C28.126389,114.869850 31.672499,117.579094 35.840538,120.675049 
	C37.490540,120.647850 38.518616,120.233932 39.750320,119.555656 
	C39.249481,118.221535 38.545006,117.151787 37.703117,116.059875 
	C37.404682,115.933060 37.228199,115.883644 37.044765,115.895813 
	C37.053284,115.902153 37.061111,115.907166 37.061111,115.907166 
	C38.088165,112.517975 39.808285,112.111572 42.740440,114.142792 
	C44.808998,115.575775 47.330208,116.355339 49.554092,117.996788 
	C47.631641,119.535522 45.804432,120.504097 43.634003,121.663879 
	C43.944801,122.828049 44.525276,124.585014 45.264069,124.654327 
	C53.919628,125.466309 62.500664,128.621582 71.686974,125.886032 
	C73.153358,126.182274 74.238503,126.352791 75.323647,126.523315 
	C75.292046,126.031219 75.260445,125.539124 75.228844,125.047028 
	C73.916519,125.235680 72.604195,125.424339 71.234955,125.201126 
	C71.341583,124.565430 71.505112,124.341614 71.942337,124.000496 
	C72.347038,123.459984 72.478043,123.036789 72.609055,122.613602 
	C72.088936,122.693306 71.568817,122.773010 70.605057,122.910141 
	C67.800240,123.079865 65.439072,123.192169 63.055962,122.919075 
	C63.020565,122.019173 63.007114,121.504662 63.002022,120.657974 
	C63.006435,119.882713 63.002487,119.439651 62.998543,118.996582 
	C68.044884,118.356201 73.091217,117.715813 78.562759,117.532135 
	C79.007416,119.033936 79.026871,120.079041 78.880783,121.378357 
	C78.401154,122.483803 78.087059,123.335022 77.870255,124.574921 
	C78.662033,124.860214 79.356514,124.756813 80.329529,124.515945 
	C80.991341,124.370399 81.374619,124.362328 81.901672,124.488754 
	C82.170525,124.593872 82.295601,124.564491 82.420677,124.535110 
	C82.322388,124.452393 82.233955,124.323570 82.123062,124.299889 
	C82.011444,124.276047 81.877502,124.356758 81.473755,123.907333 
	C81.083153,123.067116 80.972122,122.711227 81.224487,122.353531 
	C81.815865,122.433685 82.043846,122.515640 82.590286,122.692131 
	C84.609520,122.247345 86.310280,121.708015 88.319611,121.031540 
	C91.647133,119.056320 94.734184,117.316833 97.637466,115.311295 
	C98.368629,114.806229 98.511436,113.449440 98.924629,112.484055 
	C94.391205,114.014175 90.819519,116.016632 87.373337,118.215752 
	C86.332420,118.880005 85.639565,120.089706 84.465263,121.025192 
	C83.713142,121.021202 83.283035,121.041580 82.625786,121.016724 
	C82.398651,120.971481 82.015793,120.710777 81.954063,120.407684 
	C81.262901,119.089363 80.633476,118.074127 80.004044,117.058899 
	C82.168106,115.610535 84.332169,114.162170 86.751877,112.234879 
	C87.007515,111.755951 87.014709,111.290184 87.014709,111.290184 
M53.448467,3.474218 
	C52.394905,3.900341 51.341343,4.326464 49.579815,4.722977 
	C42.357174,5.308134 36.548336,9.175950 29.990767,12.970524 
	C28.290588,14.326925 26.590410,15.683327 24.443974,17.395754 
	C30.157980,18.148254 31.681938,17.103092 32.406845,13.543569 
	C33.361958,13.476210 34.401337,13.630395 35.258106,13.304497 
	C39.829205,11.565743 44.212708,8.981861 48.928951,8.058679 
	C56.102165,6.654555 63.495102,6.372891 71.390442,5.969863 
	C73.153122,6.754460 74.846214,7.930033 76.690125,8.258231 
	C86.400253,9.986534 95.017082,13.854635 102.415672,20.450382 
	C103.558784,21.469460 105.204865,21.924349 106.618340,22.640156 
	C106.945793,22.134430 107.273247,21.628706 107.600700,21.122980 
	C103.572609,17.793507 99.927437,13.761343 95.422707,11.306521 
	C89.336655,7.989971 82.590034,5.885606 75.365555,3.056637 
	C72.919342,2.854589 70.473122,2.652541 67.174217,2.368451 
	C62.780872,2.904605 58.387527,3.440759 53.448467,3.474218 
M39.522991,122.289581 
	C39.522991,122.289581 39.410259,122.533020 39.410259,122.533020 
	C39.410259,122.533020 39.653221,122.481056 39.522991,122.289581 
z"/>
<path fill="#1D1D1D" opacity="1.000000" stroke="none" 
	d="
M4.925200,62.030064 
	C5.293738,78.517006 9.998865,93.514717 20.847940,106.574547 
	C16.071367,106.873230 9.300316,97.683609 7.333639,88.824013 
	C5.974516,84.028717 5.006417,79.850800 3.710974,75.776962 
	C3.456935,74.978073 1.936407,74.581909 0.999999,74.000000 
	C1.000000,71.629440 1.000000,69.258888 1.372463,66.266853 
	C1.924749,63.427963 2.104573,61.210548 2.556653,59.027328 
	C3.194640,59.607105 3.560370,60.152691 3.993062,61.087372 
	C4.401749,61.666248 4.743474,61.856022 5.042533,62.068981 
	C4.999867,62.092167 4.925200,62.030064 4.925200,62.030064 
z"/>
<path fill="#F4F4F4" opacity="1.000000" stroke="none" 
	d="
M2.284396,58.993134 
	C2.104573,61.210548 1.924749,63.427963 1.372463,65.822693 
	C1.000000,57.979099 1.000000,49.958202 1.000000,41.468651 
	C2.525984,41.336094 4.051968,41.672188 5.884797,42.443340 
	C4.889226,48.249977 3.586811,53.621555 2.284396,58.993134 
z"/>
<path fill="#CACACA" opacity="1.000000" stroke="none" 
	d="
M0.999999,74.458069 
	C1.936407,74.581909 3.456935,74.978073 3.710974,75.776962 
	C5.006417,79.850800 5.974516,84.028717 7.074145,88.560440 
	C5.307570,87.626678 3.524013,86.302696 1.370228,84.989357 
	C1.000000,81.638710 1.000000,78.277428 0.999999,74.458069 
z"/>
<path fill="#EFEFEF" opacity="1.000000" stroke="none" 
	d="
M66.839508,65.563721 
	C63.873611,65.558800 61.380329,65.558800 58.316162,65.558800 
	C57.534290,69.165428 56.742451,72.818039 55.909554,76.660027 
	C53.593052,76.660027 51.341316,76.660027 48.514812,76.660027 
	C49.812637,69.094833 51.062988,61.806343 52.357956,54.257805 
	C54.881859,54.257805 57.293625,54.257805 59.982815,54.257805 
	C59.632866,56.464336 59.303886,58.538620 58.931740,60.885113 
	C63.106575,62.011475 66.910255,62.343140 68.885406,57.595692 
	C70.923538,52.696877 74.918571,54.112366 80.150337,53.991402 
	C77.890556,56.663399 76.403275,58.421974 75.007034,60.072914 
	C79.984207,65.799713 74.445831,71.138107 75.339706,76.722977 
	C72.420448,76.722977 70.303078,76.722977 67.610077,76.722977 
	C68.026489,74.120422 68.633591,71.742180 68.696854,69.349564 
	C68.729828,68.102333 67.804565,66.829758 66.839508,65.563721 
z"/>
<path fill="#202020" opacity="1.000000" stroke="none" 
	d="
M121.583649,84.961334 
	C119.534103,89.878632 117.261719,94.861092 114.594063,99.622093 
	C113.520073,101.538841 111.579704,102.970154 109.477333,103.901848 
	C111.024666,99.216133 112.571991,94.530411 114.057236,89.432373 
	C113.992821,88.029488 113.787941,86.983597 114.039505,86.062355 
	C114.353043,84.914154 115.042946,83.868736 115.570343,82.778938 
	C116.519180,83.280411 117.433815,83.869507 118.427078,84.257133 
	C119.306641,84.600380 120.273666,84.719498 121.583649,84.961334 
z"/>
<path fill="#ECECEC" opacity="1.000000" stroke="none" 
	d="
M62.993660,120.990158 
	C63.007114,121.504662 63.020565,122.019173 62.745857,123.127632 
	C58.641472,123.121536 54.825245,122.521484 51.011204,121.564438 
	C51.017712,120.255592 51.022038,119.303749 51.026360,118.351906 
	C54.439636,118.537300 57.852909,118.722694 61.640045,119.347321 
	C62.340492,120.187759 62.667076,120.588959 62.993660,120.990158 
z"/>
<path fill="#323232" opacity="1.000000" stroke="none" 
	d="
M116.208405,36.066555 
	C116.047501,35.219124 116.184563,33.979748 115.674316,33.591835 
	C113.418053,31.876534 110.975624,30.406092 108.394325,28.711605 
	C112.534431,23.195395 113.742058,27.897095 115.019646,29.530876 
	C116.593109,31.543018 117.416252,34.141899 118.692467,36.771004 
	C118.363808,37.103252 117.906349,37.151695 117.075287,36.934086 
	C116.589394,36.424786 116.424973,36.224293 116.208405,36.066555 
z"/>
<path fill="#D9D9D9" opacity="1.000000" stroke="none" 
	d="
M121.893700,65.012199 
	C121.599579,67.002853 121.467819,69.037117 120.949295,70.967499 
	C120.647079,72.092651 119.725677,73.051483 118.230339,75.455994 
	C117.657959,72.816841 116.962349,70.983963 116.960571,69.150414 
	C116.959236,67.774498 117.849991,66.397728 119.002686,64.984955 
	C120.405762,64.969780 121.149734,64.990990 121.893700,65.012199 
z"/>
<path fill="#C7C7C7" opacity="1.000000" stroke="none" 
	d="
M121.929245,64.663536 
	C121.149734,64.990990 120.405762,64.969780 119.289581,64.956680 
	C118.590431,60.575294 118.263496,56.185795 117.953987,51.405426 
	C118.421547,51.030861 118.871689,51.047153 119.658531,51.031017 
	C120.651756,55.437347 121.308266,59.876110 121.929245,64.663536 
z"/>
<path fill="#1D1D1D" opacity="1.000000" stroke="none" 
	d="
M28.065340,111.263626 
	C28.890350,110.634415 29.737890,110.363045 30.943407,110.069595 
	C32.547844,111.770508 33.794304,113.493484 35.040764,115.216469 
	C34.689678,115.575653 34.338589,115.934837 33.987503,116.294014 
	C32.020958,114.736496 30.054415,113.178978 28.065340,111.263626 
z"/>
<path fill="#DDDDDD" opacity="1.000000" stroke="none" 
	d="
M50.752701,118.303558 
	C51.022038,119.303749 51.017712,120.255592 50.567886,121.534744 
	C48.074001,121.732254 46.025612,121.602463 43.977226,121.472672 
	C45.804432,120.504097 47.631641,119.535522 49.700722,118.338394 
	C50.121410,118.158295 50.300228,118.206757 50.752701,118.303558 
z"/>
<path fill="#ECECEC" opacity="1.000000" stroke="none" 
	d="
M79.740555,117.028542 
	C80.633476,118.074127 81.262901,119.089363 81.616379,120.451324 
	C80.909180,120.938057 80.477928,121.078049 79.798813,121.170967 
	C79.382736,121.123978 79.214539,121.124054 79.046326,121.124138 
	C79.026871,120.079041 79.007416,119.033936 78.988251,117.596870 
	C79.151382,117.135994 79.314224,117.067085 79.740555,117.028542 
z"/>
<path fill="#ECECEC" opacity="1.000000" stroke="none" 
	d="
M95.711639,108.287086 
	C95.088593,108.949463 94.158096,109.610672 93.051414,109.976112 
	C93.718216,109.215538 94.561211,108.750725 95.711639,108.287086 
z"/>
<path fill="#1D1D1D" opacity="1.000000" stroke="none" 
	d="
M36.763924,116.441147 
	C37.061111,115.907166 37.053284,115.902153 37.061474,116.300476 
	C37.371876,117.130180 37.674088,117.561577 38.125465,118.295349 
	C38.698654,119.005157 39.122673,119.412590 39.546692,119.820023 
	C38.518616,120.233932 37.490540,120.647850 36.179062,120.827286 
	C36.086018,119.386917 36.276375,118.181030 36.763924,116.441147 
z"/>
<path fill="#1D1D1D" opacity="1.000000" stroke="none" 
	d="
M24.885139,112.032700 
	C24.251554,111.990387 23.922838,111.820152 23.594120,111.649918 
	C24.210474,111.113403 24.826828,110.576881 25.733131,110.103424 
	C25.745390,110.745911 25.467699,111.325340 24.885139,112.032700 
z"/>
<path fill="#ECECEC" opacity="1.000000" stroke="none" 
	d="
M86.699249,111.120399 
	C87.014709,111.290184 87.007515,111.755951 86.959099,111.983902 
	C86.335052,111.941170 85.759422,111.670486 85.183792,111.399811 
	C85.583794,111.250084 85.983795,111.100349 86.699249,111.120399 
z"/>
<path fill="#202020" opacity="1.000000" stroke="none" 
	d="
M111.643959,86.748245 
	C111.629921,86.988052 111.504250,87.117531 111.378578,87.247009 
	C111.429825,87.043983 111.481071,86.840950 111.643959,86.748245 
z"/>
<path fill="#DDDDDD" opacity="1.000000" stroke="none" 
	d="
M63.002022,120.657974 
	C62.667076,120.588959 62.340492,120.187759 61.997330,119.514793 
	C62.144741,119.178650 62.308727,119.114273 62.735626,119.023239 
	C63.002487,119.439651 63.006435,119.882713 63.002022,120.657974 
z"/>
<path fill="#0C0C0C" opacity="1.000000" stroke="none" 
	d="
M115.870506,38.005341 
	C115.654091,37.941601 115.471954,37.478130 115.567856,36.910023 
	C115.865517,37.072124 115.885155,37.338867 115.870506,38.005341 
z"/>
<path fill="#0C0C0C" opacity="1.000000" stroke="none" 
	d="
M116.039734,36.225056 
	C116.424973,36.224293 116.589394,36.424786 116.736343,36.861107 
	C116.771004,37.054188 116.286324,36.959282 116.046448,36.900616 
	C115.806564,36.841949 115.871071,36.383556 116.039734,36.225056 
z"/>
<path fill="#242424" opacity="1.000000" stroke="none" 
	d="
M76.126839,3.261129 
	C82.590034,5.885606 89.336655,7.989971 95.422707,11.306521 
	C99.927437,13.761343 103.572609,17.793507 107.600700,21.122980 
	C107.273247,21.628706 106.945793,22.134430 106.618340,22.640156 
	C105.204865,21.924349 103.558784,21.469460 102.415672,20.450382 
	C95.017082,13.854635 86.400253,9.986534 76.690125,8.258231 
	C74.846214,7.930033 73.153122,6.754460 71.144608,5.443083 
	C70.927696,4.682789 70.956627,4.449275 71.341064,4.184596 
	C73.173340,3.855997 74.650085,3.558563 76.126839,3.261129 
z"/>
<path fill="#161616" opacity="1.000000" stroke="none" 
	d="
M2.556653,59.027328 
	C3.586811,53.621555 4.889226,48.249977 6.274939,42.503944 
	C9.154123,35.842743 11.822400,29.462023 17.911648,25.574533 
	C12.005222,37.128376 6.557899,48.662399 5.324029,61.921600 
	C4.925200,62.030064 4.999867,62.092167 4.975814,61.738922 
	C4.609875,61.156540 4.267989,60.927406 3.926101,60.698273 
	C3.560370,60.152691 3.194640,59.607105 2.556653,59.027328 
z"/>
<path fill="#1E1E1E" opacity="1.000000" stroke="none" 
	d="
M70.985550,4.215762 
	C70.956627,4.449275 70.927696,4.682789 70.846741,5.265401 
	C63.495102,6.372891 56.102165,6.654555 48.928951,8.058679 
	C44.212708,8.981861 39.829205,11.565743 35.258106,13.304497 
	C34.401337,13.630395 33.361958,13.476210 31.880291,13.249506 
	C31.130947,12.870936 30.901197,12.842321 30.664484,12.869596 
	C36.548336,9.175950 42.357174,5.308134 50.277977,4.798076 
	C51.982155,4.574421 52.988167,4.275667 53.994183,3.976913 
	C58.387527,3.440759 62.780872,2.904605 67.666672,2.787472 
	C69.101273,3.542917 70.043411,3.879340 70.985550,4.215762 
z"/>
<path fill="#202020" opacity="1.000000" stroke="none" 
	d="
M43.634003,121.663879 
	C46.025612,121.602463 48.074001,121.732254 50.565704,121.891747 
	C54.825245,122.521484 58.641472,123.121536 62.767799,123.513031 
	C65.439072,123.192169 67.800240,123.079865 70.651688,123.150200 
	C71.179230,123.687286 71.354790,123.948944 71.668640,124.117805 
	C71.505112,124.341614 71.341583,124.565430 71.270683,125.235954 
	C71.363319,125.682663 71.305733,125.760323 71.305733,125.760323 
	C62.500664,128.621582 53.919628,125.466309 45.264069,124.654327 
	C44.525276,124.585014 43.944801,122.828049 43.634003,121.663879 
z"/>
<path fill="#141414" opacity="1.000000" stroke="none" 
	d="
M84.787277,121.049545 
	C85.639565,120.089706 86.332420,118.880005 87.373337,118.215752 
	C90.819519,116.016632 94.391205,114.014175 98.924629,112.484055 
	C98.511436,113.449440 98.368629,114.806229 97.637466,115.311295 
	C94.734184,117.316833 91.647133,119.056320 87.919128,120.979805 
	C86.402489,121.059998 85.594879,121.054779 84.787277,121.049545 
z"/>
<path fill="#292929" opacity="1.000000" stroke="none" 
	d="
M30.327625,12.920060 
	C30.901197,12.842321 31.130947,12.870936 31.501152,13.049314 
	C31.681938,17.103092 30.157980,18.148254 24.443974,17.395754 
	C26.590410,15.683327 28.290588,14.326925 30.327625,12.920060 
z"/>
<path fill="#717171" opacity="1.000000" stroke="none" 
	d="
M71.341064,4.184597 
	C70.043411,3.879340 69.101273,3.542917 68.093018,2.828493 
	C70.473122,2.652541 72.919342,2.854589 75.746201,3.158883 
	C74.650085,3.558563 73.173340,3.855997 71.341064,4.184597 
z"/>
<path fill="#141414" opacity="1.000000" stroke="none" 
	d="
M78.880783,121.378357 
	C79.214539,121.124054 79.382736,121.123978 79.850128,121.304276 
	C80.386566,121.774879 80.623833,122.065109 80.861092,122.355331 
	C80.972122,122.711227 81.083153,123.067116 81.517410,123.906517 
	C81.840645,124.390022 81.757896,124.354256 81.757896,124.354256 
	C81.374619,124.362328 80.991341,124.370399 80.132797,124.263763 
	C79.029343,124.161438 78.401154,124.173836 77.772964,124.186234 
	C78.087059,123.335022 78.401154,122.483803 78.880783,121.378357 
z"/>
<path fill="#ECECEC" opacity="1.000000" stroke="none" 
	d="
M84.465271,121.025192 
	C85.594879,121.054779 86.402489,121.059998 87.610565,121.116959 
	C86.310280,121.708015 84.609520,122.247345 82.763763,122.463593 
	C82.696823,121.780998 82.774872,121.421471 82.852921,121.061951 
	C83.283035,121.041580 83.713142,121.021202 84.465271,121.025192 
z"/>
<path fill="#DDDDDD" opacity="1.000000" stroke="none" 
	d="
M39.750320,119.555656 
	C39.122673,119.412590 38.698654,119.005157 38.149086,117.975113 
	C37.962540,116.929016 37.901535,116.505524 37.840534,116.082031 
	C38.545006,117.151787 39.249481,118.221535 39.750320,119.555656 
z"/>
<path fill="#ECECEC" opacity="1.000000" stroke="none" 
	d="
M71.686974,125.886032 
	C71.305733,125.760323 71.363319,125.682663 71.327591,125.647827 
	C72.604195,125.424339 73.916519,125.235680 75.228844,125.047028 
	C75.260445,125.539124 75.292046,126.031219 75.323647,126.523315 
	C74.238503,126.352791 73.153358,126.182274 71.686974,125.886032 
z"/>
<path fill="#202020" opacity="1.000000" stroke="none" 
	d="
M53.721325,3.725565 
	C52.988167,4.275667 51.982155,4.574421 50.631958,4.812881 
	C51.341343,4.326464 52.394905,3.900341 53.721325,3.725565 
z"/>
<path fill="#020202" opacity="1.000000" stroke="none" 
	d="
M82.625786,121.016716 
	C82.774872,121.421471 82.696823,121.780998 82.445297,122.369049 
	C82.043846,122.515640 81.815865,122.433685 81.224487,122.353531 
	C80.623833,122.065109 80.386566,121.774879 80.097992,121.351349 
	C80.477928,121.078049 80.909180,120.938057 81.678116,120.754417 
	C82.015793,120.710777 82.398651,120.971481 82.625786,121.016716 
z"/>
<path fill="#ECECEC" opacity="1.000000" stroke="none" 
	d="
M71.942337,124.000496 
	C71.354790,123.948944 71.179230,123.687286 71.095329,123.092773 
	C71.568817,122.773010 72.088936,122.693306 72.609055,122.613602 
	C72.478043,123.036789 72.347038,123.459984 71.942337,124.000496 
z"/>
<path fill="#020202" opacity="1.000000" stroke="none" 
	d="
M37.703117,116.059875 
	C37.901535,116.505524 37.962540,116.929016 37.999924,117.672737 
	C37.674088,117.561577 37.371876,117.130180 37.052956,116.294128 
	C37.228199,115.883644 37.404682,115.933060 37.703117,116.059875 
z"/>
<path fill="#5A5A5A" opacity="1.000000" stroke="none" 
	d="
M77.870255,124.574921 
	C78.401154,124.173836 79.029343,124.161438 79.854263,124.401222 
	C79.356514,124.756813 78.662033,124.860214 77.870255,124.574921 
z"/>
<path fill="#DDDDDD" opacity="1.000000" stroke="none" 
	d="
M39.588104,122.385315 
	C39.653221,122.481056 39.410259,122.533020 39.410259,122.533020 
	C39.410259,122.533020 39.522991,122.289581 39.588104,122.385315 
z"/>
<path fill="#9B9B9B" opacity="1.000000" stroke="none" 
	d="
M81.901672,124.488754 
	C81.757896,124.354256 81.840645,124.390022 81.796989,124.390839 
	C81.877502,124.356758 82.011444,124.276047 82.123062,124.299889 
	C82.233955,124.323570 82.322388,124.452393 82.420677,124.535110 
	C82.295601,124.564491 82.170525,124.593872 81.901672,124.488754 
z"/>
<path fill="#F8F8F8" opacity="1.000000" stroke="none" 
	d="
M3.993063,61.087372 
	C4.267989,60.927406 4.609875,61.156540 5.018480,61.715736 
	C4.743474,61.856022 4.401749,61.666248 3.993063,61.087372 
z"/>
</svg>